<?xml version="1.0" encoding="utf-8"?>
<!-- Uploaded to: SVG Repo, www.svgrepo.com, Generator: SVG Repo Mixer Tools -->
<svg width="80px" height="80px" viewBox="0 0 1024 1024" class="icon"  version="1.1" xmlns="http://www.w3.org/2000/svg"><path d="M512 512m-480 0a480 480 0 1 0 960 0 480 480 0 1 0-960 0Z" fill="#FFE5CF" /><path d="M806.4 422.4H768c-6.4 0-12.8 6.4-19.2 6.4-6.4-25.6-19.2-51.2-32-76.8-25.6-64-83.2-57.6-83.2-57.6H364.8c-44.8 0-64 44.8-64 44.8l-25.6 96c0-6.4-6.4-12.8-19.2-12.8h-32s-19.2 0-12.8 25.6c0 25.6 6.4 25.6 12.8 32 6.4 0 25.6 6.4 32 6.4v6.4c-25.6 6.4-25.6 32-32 57.6-6.4 19.2-19.2 96 25.6 128v44.8s0 25.6 19.2 25.6H320s19.2 0 25.6-32v-25.6h332.8v25.6c6.4 32 25.6 32 25.6 32h51.2c25.6 0 19.2-25.6 19.2-25.6v-38.4c44.8-25.6 32-96 25.6-134.4-6.4-51.2-25.6-51.2-25.6-51.2v-6.4c6.4 0 25.6-6.4 32-6.4 6.4-6.4 12.8-6.4 12.8-32 0-32-12.8-32-12.8-32z" fill="#FF8746" /><path d="M716.8 454.4H313.6s-19.2 0-19.2-19.2l32-83.2s12.8-32 51.2-32h268.8s38.4-6.4 57.6 44.8l19.2 64s12.8 25.6-6.4 25.6z" fill="#FFB791" /><path d="M236.8 550.4s0-12.8 19.2-12.8h76.8s25.6 0 32 25.6l6.4 25.6s0 12.8-12.8 19.2H268.8s-19.2 0-25.6-19.2l-6.4-38.4M793.6 550.4s0-12.8-19.2-12.8H704s-25.6 0-32 25.6l-6.4 25.6s0 12.8 12.8 19.2H768s19.2 0 25.6-19.2v-38.4" fill="#FFFFFF" /></svg>